<svg width="36" height="36" viewBox="0 0 36 36" fill="none" xmlns="http://www.w3.org/2000/svg">
<g clip-path="url(#clip0_75_930)">
<path d="M8.99955 35.9997C6.51855 35.9997 4.49955 33.9807 4.49955 31.4997V26.9997C4.49955 24.5187 6.51855 22.4997 8.99955 22.4997C11.4805 22.4997 13.4995 24.5187 13.4995 26.9997V31.4997C13.4995 33.9807 11.4805 35.9997 8.99955 35.9997ZM8.99955 25.4997C8.17305 25.4997 7.49955 26.1732 7.49955 26.9997V31.4997C7.49955 32.3262 8.17305 32.9997 8.99955 32.9997C9.82605 32.9997 10.4995 32.3262 10.4995 31.4997V26.9997C10.4995 26.1732 9.82605 25.4997 8.99955 25.4997ZM26.9995 35.9997C24.5185 35.9997 22.4995 33.9807 22.4995 31.4997V26.9997C22.4995 24.5187 24.5185 22.4997 26.9995 22.4997C29.4805 22.4997 31.4995 24.5187 31.4995 26.9997V31.4997C31.4995 33.9807 29.4805 35.9997 26.9995 35.9997ZM26.9995 25.4997C26.173 25.4997 25.4995 26.1732 25.4995 26.9997V31.4997C25.4995 32.3262 26.173 32.9997 26.9995 32.9997C27.826 32.9997 28.4995 32.3262 28.4995 31.4997V26.9997C28.4995 26.1732 27.826 25.4997 26.9995 25.4997ZM19.4995 34.4997V23.9997C19.4995 23.1717 18.6955 22.4997 17.8675 22.4997C17.4535 22.4997 17.059 22.6707 16.7755 22.9707L14.635 25.2432C14.068 25.8462 14.0965 26.7957 14.698 27.3642C15.199 27.8337 15.9355 27.8952 16.498 27.5592V34.4997C16.498 35.3277 17.17 35.9997 17.998 35.9997C18.826 35.9997 19.498 35.3277 19.498 34.4997H19.4995ZM8.99955 19.4997C10.9495 19.4997 12.7135 20.2662 14.0485 21.4917L14.5915 20.9157C15.4375 20.0157 16.6315 19.5012 17.8675 19.5012C19.492 19.5012 20.9425 20.3697 21.772 21.6402C23.125 20.3217 24.9655 19.5012 26.9995 19.5012C30.3955 19.5012 33.238 21.7842 34.159 24.8862C35.317 23.1192 35.9995 21.0147 35.9995 18.7467C35.9995 13.3992 32.1985 8.75973 26.9605 7.71573C26.4625 7.61673 26.056 7.30623 25.8475 6.86223C23.5195 1.95273 18.133 -0.792271 12.745 0.202229C7.83705 1.10073 3.98955 5.01873 3.16905 9.95223C2.92605 11.4087 2.94405 12.8667 3.21855 14.2872C3.30855 14.7507 3.10905 15.2667 2.69955 15.6387C0.982047 17.2002 -0.00195312 19.4247 -0.00195312 21.7437C-0.00195312 23.5302 0.575547 25.1817 1.54455 26.5317C1.79055 22.6167 5.02155 19.4982 8.99805 19.4982L8.99955 19.4997Z" fill="#ffffff"/>
</g>
<defs>
<clipPath id="clip0_75_930">
<rect width="36" height="36" fill="white"/>
</clipPath>
</defs>
</svg>
