<svg width="36" height="36" viewBox="0 0 36 36" fill="none" xmlns="http://www.w3.org/2000/svg">
<g clip-path="url(#clip0_75_938)">
<path d="M23.982 17.5892C24.219 20.2592 22.122 22.5002 19.5 22.5002H13.533C12.4965 22.5002 11.7615 21.5012 12.0705 20.5127C12.8235 18.0992 14.9745 14.2652 18.4305 13.6007C21.063 13.0937 23.745 14.9192 23.982 17.5892ZM24.033 12.0962C25.143 12.9332 25.9515 14.0597 26.4495 15.3077L34.938 6.18019C36.3525 4.76719 36.3555 2.47519 34.9425 1.06069C33.531 -0.352312 31.242 -0.353812 29.829 1.05769C29.781 1.10569 21.4695 10.8272 21.4695 10.8272C22.383 11.0897 23.2575 11.5112 24.033 12.0962ZM25.0335 23.0642C23.6175 24.6122 21.6 25.5017 19.5015 25.5017H13.5345C12.0975 25.5017 10.7325 24.8117 9.882 23.6567C9.0315 22.5017 8.7795 20.9927 9.207 19.6217C10.3005 16.1237 13.1385 11.7782 17.5545 10.7492L24.1365 3.00319H7.5C3.3645 3.00019 0 6.36469 0 10.5002V22.5002C0 26.6357 3.3645 30.0002 7.5 30.0002H16.5V33.0002H12C11.172 33.0002 10.5 33.6707 10.5 34.5002C10.5 35.3297 11.172 36.0002 12 36.0002H24C24.8295 36.0002 25.5 35.3297 25.5 34.5002C25.5 33.6707 24.8295 33.0002 24 33.0002H19.5V30.0002H28.5C32.6355 30.0002 36 26.6357 36 22.5002V9.42769L26.8635 19.2467C26.6235 20.6567 26.0115 21.9917 25.0335 23.0612V23.0642Z" fill="#ffffff"/>
</g>
<defs>
<clipPath id="clip0_75_938">
<rect width="36" height="36" fill="white"/>
</clipPath>
</defs>
</svg>
