<svg width="36" height="36" viewBox="0 0 36 36" fill="none" xmlns="http://www.w3.org/2000/svg">
<g clip-path="url(#clip0_75_934)">
<path d="M16.5 0H7.5C3.3585 0 0 3.3585 0 7.5V24H24V7.5C24 3.3585 20.6415 0 16.5 0ZM18.348 11.721L13.656 16.761C12.846 17.574 11.817 17.9985 10.7235 17.9985C9.63 17.9985 8.6025 17.5725 7.8285 16.8L5.688 14.658C5.1015 14.0715 5.1015 13.122 5.688 12.537C6.2745 11.9505 7.2225 11.9505 7.809 12.537L9.9495 14.6775C10.3635 15.0915 11.085 15.09 11.496 14.6775L16.1505 9.6765C16.7175 9.0705 17.6655 9.0375 18.2715 9.6C18.8775 10.164 18.912 11.115 18.348 11.721ZM0 26.997V29.247C0 32.9745 3.024 35.997 6.7515 35.997H17.2515C20.979 35.997 24.0015 32.9745 24.0015 29.247V26.997H0ZM13.5 32.997H10.5C9.672 32.997 9 32.3265 9 31.497C9 30.6675 9.672 29.997 10.5 29.997H13.5C14.328 29.997 15 30.6675 15 31.497C15 32.3265 14.328 32.997 13.5 32.997ZM36 10.5H27V4.5H30.75C33.6495 4.5 36 6.8505 36 9.75V10.5ZM36 13.5V18.75C36 21.6495 33.6495 24 30.75 24H27V13.5H36Z" fill="#ffffff"/>
</g>
<defs>
<clipPath id="clip0_75_934">
<rect width="36" height="36" fill="white"/>
</clipPath>
</defs>
</svg>
