<svg width="160" height="160" viewBox="0 0 160 160" fill="none" xmlns="http://www.w3.org/2000/svg">
<g clip-path="url(#clip0_87_1156)">
<path d="M43.3333 1.65056e-05C19.44 1.65056e-05 0 19.44 0 43.3334C0 67.2267 19.44 86.6667 43.3333 86.6667C67.2267 86.6667 86.6667 67.2267 86.6667 43.3334C86.6667 19.44 67.2267 1.65056e-05 43.3333 1.65056e-05ZM43.3333 80C23.12 80 6.66667 63.5467 6.66667 43.3334C6.66667 23.12 23.12 6.66668 43.3333 6.66668C63.5467 6.66668 80 23.12 80 43.3334C80 63.5467 63.5467 80 43.3333 80ZM136.667 80H103.333C90.4667 80 80 90.4667 80 103.333V136.667C80 149.533 90.4667 160 103.333 160H136.667C149.533 160 160 149.533 160 136.667V103.333C160 90.4667 149.533 80 136.667 80ZM153.333 136.667C153.333 145.86 145.86 153.333 136.667 153.333H103.333C94.14 153.333 86.6667 145.86 86.6667 136.667V103.333C86.6667 94.14 94.14 86.6667 103.333 86.6667H136.667C145.86 86.6667 153.333 94.14 153.333 103.333V136.667ZM160 43.3334V63.3334C160 65.1734 158.507 66.6667 156.667 66.6667C154.827 66.6667 153.333 65.1734 153.333 63.3334V43.3334C153.333 34.14 145.86 26.6667 136.667 26.6667H108.673L122.407 41.0267C123.673 42.36 123.633 44.4734 122.3 45.74C121.653 46.36 120.82 46.6667 119.993 46.6667C119.113 46.6667 118.24 46.32 117.587 45.64L102.793 30.1734C99.0467 26.4267 99.0467 20.2467 102.847 16.4467L117.593 1.02668C118.873 -0.299984 120.987 -0.34665 122.307 0.920017C123.633 2.18668 123.68 4.30002 122.413 5.63335L108.68 19.9934H136.673C149.54 19.9934 160.007 30.46 160.007 43.3267L160 43.3334ZM57.2 129.833C60.9467 133.58 60.9467 139.76 57.1467 143.56L42.4067 158.973C41.7467 159.66 40.88 160 40 160C39.1733 160 38.34 159.693 37.6933 159.073C36.3667 157.807 36.32 155.693 37.5867 154.36L51.32 140H23.3333C10.4667 140 0 129.533 0 116.667V96.6667C0 94.8267 1.49333 93.3334 3.33333 93.3334C5.17333 93.3334 6.66667 94.8267 6.66667 96.6667V116.667C6.66667 125.86 14.14 133.333 23.3333 133.333H51.3267L37.5933 118.973C36.3267 117.64 36.3667 115.527 37.7 114.26C39.0333 112.987 41.14 113.033 42.4133 114.367L57.2067 129.833H57.2Z" fill="#1963AD"/>
</g>
<defs>
<clipPath id="clip0_87_1156">
<rect width="160" height="160" fill="white"/>
</clipPath>
</defs>
</svg>
