<svg width="160" height="160" viewBox="0 0 160 160" fill="none" xmlns="http://www.w3.org/2000/svg">
<g clip-path="url(#clip0_87_1158)">
<path d="M80 116.667V143.333C80 145.2 78.5333 146.667 76.6667 146.667H46.6667C44.8 146.667 43.3333 145.2 43.3333 143.333C43.3333 141.467 44.8 140 46.6667 140H73.3333V120H30C13.4667 120 0 106.533 0 89.9998V36.6665C0 20.1332 13.4667 6.6665 30 6.6665H123.333C139.867 6.6665 153.333 20.1332 153.333 36.6665V43.3332C153.333 45.1998 151.867 46.6665 150 46.6665C148.133 46.6665 146.667 45.1998 146.667 43.3332V36.6665C146.667 23.7998 136.2 13.3332 123.333 13.3332H30C17.1333 13.3332 6.66667 23.7998 6.66667 36.6665V89.9998C6.66667 102.867 17.1333 113.333 30 113.333H76.6667C78.5333 113.333 80 114.8 80 116.667ZM160 83.3332V136.667C160 149.533 149.533 160 136.667 160H116.667C103.8 160 93.3333 149.533 93.3333 136.667V83.3332C93.3333 70.4665 103.8 59.9998 116.667 59.9998H136.667C149.533 59.9998 160 70.4665 160 83.3332ZM153.333 83.3332C153.333 74.1332 145.867 66.6665 136.667 66.6665H116.667C107.467 66.6665 100 74.1332 100 83.3332V136.667C100 145.867 107.467 153.333 116.667 153.333H136.667C145.867 153.333 153.333 145.867 153.333 136.667V83.3332Z" fill="#1963AD"/>
</g>
<defs>
<clipPath id="clip0_87_1158">
<rect width="160" height="160" fill="white"/>
</clipPath>
</defs>
</svg>
