<svg width="36" height="36" viewBox="0 0 36 36" fill="none" xmlns="http://www.w3.org/2000/svg">
<path d="M32.25 24C34.3215 24 36 25.6785 36 27.75C36 29.8215 34.3215 31.5 32.25 31.5H3.75C1.6785 31.5 0 29.8215 0 27.75C0 25.6785 1.6785 24 3.75 24H12.2265C13.11 24 13.947 24.3885 14.517 25.062L14.8875 25.5H21.111L21.4815 25.062C22.0515 24.3885 22.8885 24 23.772 24H32.25ZM33 12V21.165C32.5155 21.0645 32.016 21 31.5 21H23.7735C22.299 21 20.8935 21.5385 19.8045 22.5H16.1985C15.1095 21.5385 13.704 21 12.2295 21H4.5C3.984 21 3.4845 21.0645 3 21.165V12C3 7.8645 6.3645 4.5 10.5 4.5H25.5C29.6355 4.5 33 7.8645 33 12ZM13.599 13.332L16.1205 10.8105C16.707 10.224 16.707 9.276 16.1205 8.6895C15.534 8.103 14.586 8.103 13.9995 8.6895L11.478 11.211C10.17 12.519 10.17 14.646 11.5005 15.975L13.9575 18.333C14.2485 18.612 14.622 18.75 14.9955 18.75C15.39 18.75 15.783 18.5955 16.0785 18.288C16.6515 17.691 16.632 16.74 16.035 16.167L13.599 13.8315C13.461 13.6935 13.461 13.47 13.599 13.332ZM24.5175 11.211L21.996 8.6895C21.4095 8.103 20.4615 8.103 19.875 8.6895C19.2885 9.276 19.2885 10.224 19.875 10.8105L22.3965 13.332C22.5345 13.47 22.5345 13.6935 22.419 13.809L19.962 16.167C19.365 16.74 19.344 17.691 19.9185 18.288C20.2125 18.5955 20.607 18.75 21.0015 18.75C21.375 18.75 21.75 18.612 22.0395 18.333L24.519 15.954C25.827 14.646 25.827 12.519 24.519 11.2125L24.5175 11.211Z" fill="#ffffff"/>
</svg>
