<svg width="160" height="160" viewBox="0 0 160 160" fill="none" xmlns="http://www.w3.org/2000/svg">
<g clip-path="url(#clip0_87_1160)">
<path d="M138.813 39.22L130.927 45.6467L134.187 55.58C134.633 56.9267 134.187 58.4067 133.06 59.2667C131.933 60.1267 130.393 60.1867 129.207 59.42L120.027 53.44L111 59.48C110.44 59.8533 109.793 60.04 109.147 60.04C108.44 60.04 107.74 59.82 107.147 59.3733C106.013 58.5267 105.54 57.0533 105.967 55.7067L109.1 45.6533L101.173 39.2067C100.107 38.3 99.72 36.8267 100.2 35.52C100.68 34.2067 101.933 33.3333 103.327 33.3333H113.327L116.867 23.4C117.353 22.0933 118.6 21.2333 119.993 21.2333C121.387 21.2333 122.633 22.1 123.12 23.4L126.66 33.3333H136.66C138.06 33.3333 139.313 34.2067 139.793 35.5267C140.273 36.8467 139.88 38.32 138.807 39.22H138.813ZM99.8 35.5267C99.32 34.2133 98.0667 33.3333 96.6667 33.3333H86.6667L83.1267 23.4C82.64 22.0933 81.3933 21.2333 80 21.2333C78.6067 21.2333 77.36 22.1 76.8733 23.4L73.3333 33.3333H63.3333C61.9333 33.3333 60.6867 34.2067 60.2067 35.52C59.72 36.8333 60.1133 38.3067 61.18 39.2067L69.1067 45.6533L65.9733 55.7067C65.5533 57.0533 66.02 58.5267 67.1533 59.3733C67.7467 59.8133 68.4467 60.04 69.1533 60.04C69.8 60.04 70.4467 59.8533 71.0067 59.48L80.0333 53.44L89.2133 59.42C90.4 60.1867 91.94 60.1267 93.0667 59.2667C94.1867 58.4 94.64 56.92 94.1933 55.58L90.9333 45.6467L98.82 39.22C99.8933 38.32 100.28 36.84 99.8 35.5267ZM27.1467 59.38C27.74 59.82 28.44 60.0467 29.1467 60.0467C29.7933 60.0467 30.44 59.86 31 59.4867L40.0267 53.4467L49.2067 59.4267C50.3933 60.1933 51.9333 60.1333 53.06 59.2733C54.18 58.4067 54.6333 56.9267 54.1867 55.5867L50.9267 45.6533L58.8133 39.2267C59.8867 38.3267 60.28 36.8467 59.8 35.5333C59.32 34.22 58.0667 33.34 56.6667 33.34H46.6667L43.1267 23.4067C42.64 22.1 41.3933 21.24 40 21.24C38.6067 21.24 37.36 22.1067 36.8733 23.4067L33.3333 33.34H23.3333C21.9333 33.34 20.6867 34.2133 20.2067 35.5267C19.72 36.84 20.1133 38.3133 21.18 39.2133L29.1067 45.66L25.9733 55.7133C25.5533 57.06 26.0133 58.5333 27.1467 59.38ZM118.373 126.247L86.6667 114.36V84.0533C86.6667 75.5667 80.6933 68.1933 72.7733 66.9C67.8867 66.12 62.94 67.4667 59.2067 70.6467C55.4733 73.82 53.3333 78.4467 53.3333 83.3467V132.84L52.4133 133.287L41.24 124.387C34.5267 118.233 24.0533 118.613 17.8267 125.287C11.5533 132 11.8667 142.54 18.5333 148.78L29.4667 159.1C30.08 159.68 30.8933 160 31.74 160C34.7267 160 36.1867 156.353 34.02 154.293L23.1333 143.953C19.14 140.207 18.94 133.86 22.7067 129.833C26.4333 125.833 32.7067 125.607 36.7467 129.3C36.8333 129.38 48.26 138.493 48.26 138.493C50.4467 140.233 53.3867 140.567 55.9067 139.347C58.4333 138.127 60 135.633 60 132.827V83.3333C60 80.4 61.2867 77.62 63.5267 75.7133C65.8 73.78 68.7067 72.9867 71.7067 73.4733C76.4333 74.24 80.0067 78.7867 80.0067 84.0467V116.667C80.0067 118.053 80.8667 119.3 82.1667 119.787L116.033 132.487C126.707 136.487 133.34 145.753 133.34 156.667C133.34 158.507 134.833 160 136.673 160C138.513 160 140.007 158.507 140.007 156.667C140.007 142.907 131.713 131.247 118.373 126.247ZM130 0H30C13.46 0 0 13.46 0 30V50C0 66.54 13.46 80 30 80H36.6667C38.5067 80 40 78.5067 40 76.6667C40 74.8267 38.5067 73.3333 36.6667 73.3333H30C17.1333 73.3333 6.66667 62.8667 6.66667 50V30C6.66667 17.1333 17.1333 6.66667 30 6.66667H130C142.867 6.66667 153.333 17.1333 153.333 30V50C153.333 62.8667 142.867 73.3333 130 73.3333H103.333C101.493 73.3333 100 74.8267 100 76.6667C100 78.5067 101.493 80 103.333 80H130C146.54 80 160 66.54 160 50V30C160 13.46 146.54 0 130 0Z" fill="#1963AD"/>
</g>
<defs>
<clipPath id="clip0_87_1160">
<rect width="160" height="160" fill="white"/>
</clipPath>
</defs>
</svg>
