<svg width="36" height="36" viewBox="0 0 36 36" fill="none" xmlns="http://www.w3.org/2000/svg">
<path d="M36 12V9C36 4.86 32.64 1.5 28.5 1.5H7.5C3.36 1.5 0 4.86 0 9V12H36ZM29.25 4.5C30.495 4.5 31.5 5.505 31.5 6.75C31.5 7.995 30.495 9 29.25 9C28.005 9 27 7.995 27 6.75C27 5.505 28.005 4.5 29.25 4.5ZM23.25 4.5C24.495 4.5 25.5 5.505 25.5 6.75C25.5 7.995 24.495 9 23.25 9C22.005 9 21 7.995 21 6.75C21 5.505 22.005 4.5 23.25 4.5ZM17.25 4.5C18.495 4.5 19.5 5.505 19.5 6.75C19.5 7.995 18.495 9 17.25 9C16.005 9 15 7.995 15 6.75C15 5.505 16.005 4.5 17.25 4.5ZM36 15V27C36 31.14 32.64 34.5 28.5 34.5H7.5C3.36 34.5 0 31.14 0 27V15H36Z" fill="#ffffff"/>
</svg>
