<svg width="776" height="644" viewBox="0 0 776 644" fill="none" xmlns="http://www.w3.org/2000/svg">
<mask id="mask0_41_1771" style="mask-type:alpha" maskUnits="userSpaceOnUse" x="0" y="0" width="776" height="644">
<rect width="775.968" height="643.777" fill="#D9D9D9"/>
</mask>
<g mask="url(#mask0_41_1771)">
<g filter="url(#filter0_b_41_1771)">
<path d="M-392.775 61.8723L710.661 20.4934C743.63 19.257 771.032 45.6501 771.032 78.6429V558.631C771.032 589.921 746.289 615.608 715.022 616.781L-392.775 658.323V61.8723Z" fill="url(#paint0_linear_41_1771)"/>
</g>
<path d="M-87.9739 200.236V272.974C-87.9739 308.853 -117.059 337.938 -152.938 337.938C-188.817 337.938 -217.902 308.853 -217.902 272.974L-217.902 200.236C-217.902 164.357 -188.817 135.272 -152.938 135.272C-117.059 135.272 -87.9739 164.357 -87.9739 200.236ZM21.633 178.915H94.3709C130.25 178.915 159.335 208 159.335 243.879C159.335 279.758 130.25 308.843 94.371 308.843H21.6331C-14.2456 308.843 -43.3311 279.758 -43.3311 243.879C-43.3311 208 -14.2457 178.915 21.633 178.915ZM239.847 178.915H312.585C348.464 178.915 377.549 208 377.549 243.879C377.549 279.758 348.464 308.843 312.585 308.843H239.847C203.968 308.843 174.883 279.758 174.883 243.879C174.883 208 203.968 178.915 239.847 178.915ZM566.668 200.236V272.974C566.668 308.853 537.582 337.938 501.703 337.938C465.825 337.938 436.739 308.853 436.739 272.974V200.236C436.739 164.357 465.825 135.272 501.703 135.272C537.582 135.272 566.668 164.357 566.668 200.236ZM-196.581 382.581H-123.843C-87.9642 382.581 -58.8787 411.666 -58.8787 447.545C-58.8787 483.424 -87.9641 512.509 -123.843 512.509H-196.581C-232.459 512.509 -261.545 483.424 -261.545 447.545C-261.545 411.666 -232.459 382.581 -196.581 382.581ZM21.633 382.581H94.3709C130.25 382.581 159.335 411.666 159.335 447.545C159.335 483.424 130.25 512.509 94.371 512.509H21.6331C-14.2456 512.509 -43.3311 483.424 -43.3311 447.545C-43.3311 411.666 -14.2457 382.581 21.633 382.581ZM348.454 403.902V476.64C348.454 512.519 319.368 541.604 283.49 541.604C247.611 541.604 218.525 512.519 218.525 476.64V403.902C218.525 368.024 247.611 338.938 283.49 338.938C319.368 338.938 348.454 368.024 348.454 403.902ZM458.061 382.581H530.799C566.677 382.581 595.763 411.666 595.763 447.545C595.763 483.424 566.677 512.509 530.799 512.509H458.061C422.182 512.509 393.097 483.424 393.097 447.545C393.097 411.666 422.182 382.581 458.061 382.581Z" stroke="white"/>
</g>
<path d="M0 571.037H34.0391V596.495L0 643.548V571.037Z" fill="white"/>
<path d="M0 571.037H34.0391V596.495L0 643.548V571.037Z" fill="black" fill-opacity="0.4"/>
<defs>
<filter id="filter0_b_41_1771" x="-400.775" y="12.4517" width="1179.81" height="653.872" filterUnits="userSpaceOnUse" color-interpolation-filters="sRGB">
<feFlood flood-opacity="0" result="BackgroundImageFix"/>
<feGaussianBlur in="BackgroundImageFix" stdDeviation="4"/>
<feComposite in2="SourceAlpha" operator="in" result="effect1_backgroundBlur_41_1771"/>
<feBlend mode="normal" in="SourceGraphic" in2="effect1_backgroundBlur_41_1771" result="shape"/>
</filter>
<linearGradient id="paint0_linear_41_1771" x1="79.8038" y1="18.2295" x2="771.032" y2="18.2295" gradientUnits="userSpaceOnUse">
<stop stop-color="#E6EBF2"/>
<stop offset="1" stop-color="#0A2947" stop-opacity="0.1"/>
</linearGradient>
</defs>
</svg>
