<svg width="274" height="48" viewBox="0 0 274 48" fill="none" xmlns="http://www.w3.org/2000/svg">
<path d="M60.8868 10.8035C60.8868 8.90214 61.3621 7.23081 62.3128 5.78948C63.2634 4.34814 64.5974 3.22881 66.3148 2.43147C68.0628 1.63414 70.0714 1.23547 72.3408 1.23547C74.4568 1.23547 76.2968 1.61881 77.8608 2.38548C79.4554 3.12147 80.6974 4.17948 81.5868 5.55948C82.5068 6.93948 83.0281 8.59548 83.1508 10.5275H78.5968C78.4741 8.87148 77.8608 7.58348 76.7568 6.66348C75.6528 5.74348 74.1654 5.28348 72.2948 5.28348C70.2094 5.28348 68.5381 5.77414 67.2808 6.75547C66.0234 7.70614 65.3948 9.00947 65.3948 10.6655C65.3948 12.0148 65.7781 13.1035 66.5448 13.9315C67.3114 14.7288 68.4768 15.3115 70.0408 15.6795L75.5148 16.9675C78.2441 17.5808 80.2834 18.6388 81.6328 20.1415C83.0128 21.6135 83.7028 23.5148 83.7028 25.8455C83.7028 27.8388 83.2121 29.5715 82.2308 31.0435C81.2801 32.5155 79.9154 33.6501 78.1368 34.4475C76.3888 35.2448 74.3341 35.6435 71.9728 35.6435C69.7341 35.6435 67.7561 35.2755 66.0388 34.5395C64.3521 33.7728 63.0181 32.6995 62.0368 31.3195C61.0861 29.9088 60.5494 28.2681 60.4268 26.3975H65.0268C65.0574 27.9921 65.7014 29.2648 66.9588 30.2155C68.2161 31.1355 69.8874 31.5955 71.9728 31.5955C74.1808 31.5955 75.9288 31.1048 77.2168 30.1235C78.5354 29.1421 79.1948 27.8388 79.1948 26.2135C79.1948 24.8948 78.8268 23.8215 78.0908 22.9935C77.3548 22.1655 76.1894 21.5675 74.5948 21.1995L69.1208 19.9575C66.4221 19.3441 64.3674 18.2708 62.9568 16.7375C61.5768 15.1735 60.8868 13.1955 60.8868 10.8035ZM93.4616 35.0915L86.1016 12.5975H90.5636L94.2896 24.2815C94.5656 25.1095 94.8109 25.9681 95.0256 26.8575C95.2403 27.7161 95.4549 28.6361 95.6696 29.6175C95.7923 28.9428 95.9303 28.2988 96.0836 27.6855C96.2676 27.0415 96.4516 26.4435 96.6356 25.8915C96.8196 25.3088 96.9883 24.7721 97.1416 24.2815L100.914 12.5975H105.33L109.056 24.2815C109.178 24.5575 109.286 24.9255 109.378 25.3855C109.5 25.8148 109.638 26.2748 109.792 26.7655C109.945 27.2561 110.083 27.7468 110.206 28.2375C110.328 28.7281 110.436 29.1881 110.528 29.6175C110.65 29.0041 110.773 28.4215 110.896 27.8695C111.049 27.2868 111.202 26.7195 111.356 26.1675C111.54 25.5848 111.739 24.9561 111.954 24.2815L115.726 12.5975H120.234L112.552 35.0915H108.458L104.548 23.0395C104.18 21.9048 103.873 20.9081 103.628 20.0495C103.413 19.1601 103.244 18.4088 103.122 17.7955C102.999 18.3475 102.815 19.0375 102.57 19.8655C102.355 20.6628 102.048 21.7361 101.65 23.0855L97.7396 35.0915H93.4616ZM123.94 35.0915V12.5975H128.264V35.0915H123.94ZM126.056 7.26148C125.29 7.26148 124.615 6.98548 124.032 6.43348C123.48 5.85081 123.204 5.17614 123.204 4.40947C123.204 3.61214 123.48 2.93748 124.032 2.38548C124.615 1.83348 125.29 1.55747 126.056 1.55747C126.854 1.55747 127.528 1.83348 128.08 2.38548C128.632 2.93748 128.908 3.61214 128.908 4.40947C128.908 5.17614 128.632 5.85081 128.08 6.43348C127.528 6.98548 126.854 7.26148 126.056 7.26148ZM132.15 12.5975H146.272V16.2315H132.15V12.5975ZM145.03 1.41947V5.14548C144.754 5.14548 144.447 5.14548 144.11 5.14548C143.803 5.14548 143.466 5.14548 143.098 5.14548C141.779 5.14548 140.89 5.48281 140.43 6.15748C140 6.83214 139.786 7.78281 139.786 9.00947V35.0915H135.462V9.00947C135.462 7.16948 135.768 5.68214 136.382 4.54747C136.995 3.38214 137.823 2.53881 138.866 2.01747C139.908 1.49614 141.074 1.23547 142.362 1.23547C142.791 1.23547 143.236 1.25081 143.696 1.28148C144.156 1.31214 144.6 1.35814 145.03 1.41947ZM145.72 12.5975H159.06V16.2315H145.72V12.5975ZM154.644 35.0915H150.32V5.55948H154.644V35.0915ZM164.726 12.5975L172.638 34.4935L169.97 38.1735L160.172 12.5975H164.726ZM160.77 45.1655V41.6235H163.668C164.374 41.6235 165.018 41.5468 165.6 41.3935C166.183 41.2708 166.72 40.9795 167.21 40.5195C167.701 40.0901 168.115 39.4001 168.452 38.4495L177.928 12.5975H182.39L171.764 40.1515C170.998 42.0835 170.032 43.4788 168.866 44.3375C167.701 45.1961 166.26 45.6255 164.542 45.6255C163.837 45.6255 163.178 45.5795 162.564 45.4875C161.951 45.4261 161.353 45.3188 160.77 45.1655ZM191.087 1.83347V35.0915H186.579V1.83347H191.087ZM199.643 20.4175H189.845V16.5075H199.275C201.145 16.5075 202.587 16.0321 203.599 15.0815C204.611 14.1308 205.117 12.7815 205.117 11.0335C205.117 9.37748 204.58 8.10481 203.507 7.21548C202.464 6.29548 200.961 5.83547 198.999 5.83547H189.063V1.83347H199.275C202.525 1.83347 205.071 2.61547 206.911 4.17947C208.781 5.74347 209.717 7.89014 209.717 10.6195C209.717 12.6741 209.211 14.3915 208.199 15.7715C207.217 17.1208 205.761 18.1021 203.829 18.7155V18.1175C205.975 18.6388 207.585 19.5895 208.659 20.9695C209.763 22.3188 210.315 24.0668 210.315 26.2135C210.315 28.0535 209.885 29.6481 209.027 30.9975C208.199 32.3161 206.987 33.3281 205.393 34.0335C203.798 34.7388 201.912 35.0915 199.735 35.0915H189.063V31.0895H199.643C201.575 31.0895 203.062 30.6141 204.105 29.6635C205.147 28.7128 205.669 27.3788 205.669 25.6615C205.669 24.0055 205.132 22.7175 204.059 21.7975C203.016 20.8775 201.544 20.4175 199.643 20.4175ZM216.566 12.5975L224.478 34.4935L221.81 38.1735L212.012 12.5975H216.566ZM212.61 45.1655V41.6235H215.508C216.214 41.6235 216.858 41.5468 217.44 41.3935C218.023 41.2708 218.56 40.9795 219.05 40.5195C219.541 40.0901 219.955 39.4001 220.292 38.4495L229.768 12.5975H234.23L223.604 40.1515C222.838 42.0835 221.872 43.4788 220.706 44.3375C219.541 45.1961 218.1 45.6255 216.382 45.6255C215.677 45.6255 215.018 45.5795 214.404 45.4875C213.791 45.4261 213.193 45.3188 212.61 45.1655ZM235.29 12.5975H248.354V16.2315H235.29V12.5975ZM248.17 31.3195L248.722 34.9075C247.557 35.3675 246.315 35.5975 244.996 35.5975C243.678 35.5975 242.558 35.3521 241.638 34.8615C240.718 34.3401 240.013 33.5735 239.522 32.5615C239.032 31.5495 238.786 30.2921 238.786 28.7895V5.55948H243.11V28.1915C243.11 29.4795 243.371 30.3995 243.892 30.9515C244.444 31.4728 245.15 31.7335 246.008 31.7335C246.683 31.7335 247.404 31.5955 248.17 31.3195ZM262.662 35.6435C260.484 35.6435 258.552 35.1528 256.866 34.1715C255.179 33.1595 253.86 31.7795 252.91 30.0315C251.959 28.2528 251.484 26.1981 251.484 23.8675C251.484 21.5061 251.944 19.4361 252.864 17.6575C253.814 15.8788 255.102 14.4835 256.728 13.4715C258.384 12.4595 260.3 11.9535 262.478 11.9535C264.624 11.9535 266.48 12.4135 268.044 13.3335C269.638 14.2535 270.865 15.5415 271.724 17.1975C272.613 18.8535 273.058 20.8008 273.058 23.0395V24.6495L253.784 24.6955L253.876 21.7975H268.734C268.734 19.9268 268.166 18.4241 267.032 17.2895C265.897 16.1548 264.379 15.5875 262.478 15.5875C261.036 15.5875 259.794 15.9095 258.752 16.5535C257.74 17.1668 256.958 18.0868 256.406 19.3135C255.884 20.5095 255.624 21.9508 255.624 23.6375C255.624 26.3361 256.237 28.4215 257.464 29.8935C258.69 31.3348 260.454 32.0555 262.754 32.0555C264.44 32.0555 265.82 31.7181 266.894 31.0435C267.967 30.3688 268.688 29.3875 269.056 28.0995H273.104C272.552 30.4915 271.371 32.3468 269.562 33.6655C267.752 34.9841 265.452 35.6435 262.662 35.6435Z" fill="white"/>
<path d="M60.8868 10.8035C60.8868 8.90214 61.3621 7.23081 62.3128 5.78948C63.2634 4.34814 64.5974 3.22881 66.3148 2.43147C68.0628 1.63414 70.0714 1.23547 72.3408 1.23547C74.4568 1.23547 76.2968 1.61881 77.8608 2.38548C79.4554 3.12147 80.6974 4.17948 81.5868 5.55948C82.5068 6.93948 83.0281 8.59548 83.1508 10.5275H78.5968C78.4741 8.87148 77.8608 7.58348 76.7568 6.66348C75.6528 5.74348 74.1654 5.28348 72.2948 5.28348C70.2094 5.28348 68.5381 5.77414 67.2808 6.75547C66.0234 7.70614 65.3948 9.00947 65.3948 10.6655C65.3948 12.0148 65.7781 13.1035 66.5448 13.9315C67.3114 14.7288 68.4768 15.3115 70.0408 15.6795L75.5148 16.9675C78.2441 17.5808 80.2834 18.6388 81.6328 20.1415C83.0128 21.6135 83.7028 23.5148 83.7028 25.8455C83.7028 27.8388 83.2121 29.5715 82.2308 31.0435C81.2801 32.5155 79.9154 33.6501 78.1368 34.4475C76.3888 35.2448 74.3341 35.6435 71.9728 35.6435C69.7341 35.6435 67.7561 35.2755 66.0388 34.5395C64.3521 33.7728 63.0181 32.6995 62.0368 31.3195C61.0861 29.9088 60.5494 28.2681 60.4268 26.3975H65.0268C65.0574 27.9921 65.7014 29.2648 66.9588 30.2155C68.2161 31.1355 69.8874 31.5955 71.9728 31.5955C74.1808 31.5955 75.9288 31.1048 77.2168 30.1235C78.5354 29.1421 79.1948 27.8388 79.1948 26.2135C79.1948 24.8948 78.8268 23.8215 78.0908 22.9935C77.3548 22.1655 76.1894 21.5675 74.5948 21.1995L69.1208 19.9575C66.4221 19.3441 64.3674 18.2708 62.9568 16.7375C61.5768 15.1735 60.8868 13.1955 60.8868 10.8035ZM93.4616 35.0915L86.1016 12.5975H90.5636L94.2896 24.2815C94.5656 25.1095 94.8109 25.9681 95.0256 26.8575C95.2403 27.7161 95.4549 28.6361 95.6696 29.6175C95.7923 28.9428 95.9303 28.2988 96.0836 27.6855C96.2676 27.0415 96.4516 26.4435 96.6356 25.8915C96.8196 25.3088 96.9883 24.7721 97.1416 24.2815L100.914 12.5975H105.33L109.056 24.2815C109.178 24.5575 109.286 24.9255 109.378 25.3855C109.5 25.8148 109.638 26.2748 109.792 26.7655C109.945 27.2561 110.083 27.7468 110.206 28.2375C110.328 28.7281 110.436 29.1881 110.528 29.6175C110.65 29.0041 110.773 28.4215 110.896 27.8695C111.049 27.2868 111.202 26.7195 111.356 26.1675C111.54 25.5848 111.739 24.9561 111.954 24.2815L115.726 12.5975H120.234L112.552 35.0915H108.458L104.548 23.0395C104.18 21.9048 103.873 20.9081 103.628 20.0495C103.413 19.1601 103.244 18.4088 103.122 17.7955C102.999 18.3475 102.815 19.0375 102.57 19.8655C102.355 20.6628 102.048 21.7361 101.65 23.0855L97.7396 35.0915H93.4616ZM123.94 35.0915V12.5975H128.264V35.0915H123.94ZM126.056 7.26148C125.29 7.26148 124.615 6.98548 124.032 6.43348C123.48 5.85081 123.204 5.17614 123.204 4.40947C123.204 3.61214 123.48 2.93748 124.032 2.38548C124.615 1.83348 125.29 1.55747 126.056 1.55747C126.854 1.55747 127.528 1.83348 128.08 2.38548C128.632 2.93748 128.908 3.61214 128.908 4.40947C128.908 5.17614 128.632 5.85081 128.08 6.43348C127.528 6.98548 126.854 7.26148 126.056 7.26148ZM132.15 12.5975H146.272V16.2315H132.15V12.5975ZM145.03 1.41947V5.14548C144.754 5.14548 144.447 5.14548 144.11 5.14548C143.803 5.14548 143.466 5.14548 143.098 5.14548C141.779 5.14548 140.89 5.48281 140.43 6.15748C140 6.83214 139.786 7.78281 139.786 9.00947V35.0915H135.462V9.00947C135.462 7.16948 135.768 5.68214 136.382 4.54747C136.995 3.38214 137.823 2.53881 138.866 2.01747C139.908 1.49614 141.074 1.23547 142.362 1.23547C142.791 1.23547 143.236 1.25081 143.696 1.28148C144.156 1.31214 144.6 1.35814 145.03 1.41947ZM145.72 12.5975H159.06V16.2315H145.72V12.5975ZM154.644 35.0915H150.32V5.55948H154.644V35.0915ZM164.726 12.5975L172.638 34.4935L169.97 38.1735L160.172 12.5975H164.726ZM160.77 45.1655V41.6235H163.668C164.374 41.6235 165.018 41.5468 165.6 41.3935C166.183 41.2708 166.72 40.9795 167.21 40.5195C167.701 40.0901 168.115 39.4001 168.452 38.4495L177.928 12.5975H182.39L171.764 40.1515C170.998 42.0835 170.032 43.4788 168.866 44.3375C167.701 45.1961 166.26 45.6255 164.542 45.6255C163.837 45.6255 163.178 45.5795 162.564 45.4875C161.951 45.4261 161.353 45.3188 160.77 45.1655ZM191.087 1.83347V35.0915H186.579V1.83347H191.087ZM199.643 20.4175H189.845V16.5075H199.275C201.145 16.5075 202.587 16.0321 203.599 15.0815C204.611 14.1308 205.117 12.7815 205.117 11.0335C205.117 9.37748 204.58 8.10481 203.507 7.21548C202.464 6.29548 200.961 5.83547 198.999 5.83547H189.063V1.83347H199.275C202.525 1.83347 205.071 2.61547 206.911 4.17947C208.781 5.74347 209.717 7.89014 209.717 10.6195C209.717 12.6741 209.211 14.3915 208.199 15.7715C207.217 17.1208 205.761 18.1021 203.829 18.7155V18.1175C205.975 18.6388 207.585 19.5895 208.659 20.9695C209.763 22.3188 210.315 24.0668 210.315 26.2135C210.315 28.0535 209.885 29.6481 209.027 30.9975C208.199 32.3161 206.987 33.3281 205.393 34.0335C203.798 34.7388 201.912 35.0915 199.735 35.0915H189.063V31.0895H199.643C201.575 31.0895 203.062 30.6141 204.105 29.6635C205.147 28.7128 205.669 27.3788 205.669 25.6615C205.669 24.0055 205.132 22.7175 204.059 21.7975C203.016 20.8775 201.544 20.4175 199.643 20.4175ZM216.566 12.5975L224.478 34.4935L221.81 38.1735L212.012 12.5975H216.566ZM212.61 45.1655V41.6235H215.508C216.214 41.6235 216.858 41.5468 217.44 41.3935C218.023 41.2708 218.56 40.9795 219.05 40.5195C219.541 40.0901 219.955 39.4001 220.292 38.4495L229.768 12.5975H234.23L223.604 40.1515C222.838 42.0835 221.872 43.4788 220.706 44.3375C219.541 45.1961 218.1 45.6255 216.382 45.6255C215.677 45.6255 215.018 45.5795 214.404 45.4875C213.791 45.4261 213.193 45.3188 212.61 45.1655ZM235.29 12.5975H248.354V16.2315H235.29V12.5975ZM248.17 31.3195L248.722 34.9075C247.557 35.3675 246.315 35.5975 244.996 35.5975C243.678 35.5975 242.558 35.3521 241.638 34.8615C240.718 34.3401 240.013 33.5735 239.522 32.5615C239.032 31.5495 238.786 30.2921 238.786 28.7895V5.55948H243.11V28.1915C243.11 29.4795 243.371 30.3995 243.892 30.9515C244.444 31.4728 245.15 31.7335 246.008 31.7335C246.683 31.7335 247.404 31.5955 248.17 31.3195ZM262.662 35.6435C260.484 35.6435 258.552 35.1528 256.866 34.1715C255.179 33.1595 253.86 31.7795 252.91 30.0315C251.959 28.2528 251.484 26.1981 251.484 23.8675C251.484 21.5061 251.944 19.4361 252.864 17.6575C253.814 15.8788 255.102 14.4835 256.728 13.4715C258.384 12.4595 260.3 11.9535 262.478 11.9535C264.624 11.9535 266.48 12.4135 268.044 13.3335C269.638 14.2535 270.865 15.5415 271.724 17.1975C272.613 18.8535 273.058 20.8008 273.058 23.0395V24.6495L253.784 24.6955L253.876 21.7975H268.734C268.734 19.9268 268.166 18.4241 267.032 17.2895C265.897 16.1548 264.379 15.5875 262.478 15.5875C261.036 15.5875 259.794 15.9095 258.752 16.5535C257.74 17.1668 256.958 18.0868 256.406 19.3135C255.884 20.5095 255.624 21.9508 255.624 23.6375C255.624 26.3361 256.237 28.4215 257.464 29.8935C258.69 31.3348 260.454 32.0555 262.754 32.0555C264.44 32.0555 265.82 31.7181 266.894 31.0435C267.967 30.3688 268.688 29.3875 269.056 28.0995H273.104C272.552 30.4915 271.371 32.3468 269.562 33.6655C267.752 34.9841 265.452 35.6435 262.662 35.6435Z" fill="white" fill-opacity="0.4"/>
<path fill-rule="evenodd" clip-rule="evenodd" d="M48.2768 4.94657C48.2768 2.24037 46.0829 0.0465698 43.3768 0.0465698H5.57676C2.87056 0.0465698 0.676758 2.24038 0.676758 4.94657V42.7466C0.676758 45.4528 2.87057 47.6466 5.57676 47.6466H43.3768C46.083 47.6466 48.2768 45.4528 48.2768 42.7466V4.94657ZM12.2267 17.1966C12.2267 15.4569 10.8164 14.0466 9.07666 14.0466C7.33696 14.0466 5.92666 15.4569 5.92666 17.1966V20.6966C5.92666 22.4363 7.33696 23.8466 9.07666 23.8466C10.8164 23.8466 12.2267 22.4363 12.2267 20.6966V17.1966ZM17.4767 16.1466C15.737 16.1466 14.3267 17.5569 14.3267 19.2966C14.3267 21.0363 15.737 22.4466 17.4767 22.4466H20.9767C22.7164 22.4466 24.1267 21.0363 24.1267 19.2966C24.1267 17.5569 22.7164 16.1466 20.9767 16.1466H17.4767ZM24.8267 19.2966C24.8267 17.5569 26.237 16.1466 27.9767 16.1466H31.4767C33.2164 16.1466 34.6267 17.5569 34.6267 19.2966C34.6267 21.0363 33.2164 22.4466 31.4767 22.4466H27.9767C26.237 22.4466 24.8267 21.0363 24.8267 19.2966ZM43.7267 17.1966C43.7267 15.4569 42.3164 14.0466 40.5767 14.0466C38.837 14.0466 37.4267 15.4569 37.4267 17.1966V20.6966C37.4267 22.4363 38.837 23.8466 40.5767 23.8466C42.3164 23.8466 43.7267 22.4363 43.7267 20.6966V17.1966ZM3.82666 29.0966C3.82666 27.3569 5.23696 25.9466 6.97666 25.9466H10.4767C12.2164 25.9466 13.6267 27.3569 13.6267 29.0966C13.6267 30.8363 12.2164 32.2466 10.4767 32.2466H6.97666C5.23697 32.2466 3.82666 30.8363 3.82666 29.0966ZM17.4767 25.9466C15.737 25.9466 14.3267 27.3569 14.3267 29.0966C14.3267 30.8363 15.737 32.2466 17.4767 32.2466H20.9767C22.7164 32.2466 24.1267 30.8363 24.1267 29.0966C24.1267 27.3569 22.7164 25.9466 20.9767 25.9466H17.4767ZM30.0767 23.8466C31.8164 23.8466 33.2267 25.2569 33.2267 26.9966V30.4966C33.2267 32.2363 31.8164 33.6466 30.0767 33.6466C28.337 33.6466 26.9267 32.2363 26.9267 30.4966V26.9966C26.9267 25.2569 28.337 23.8466 30.0767 23.8466ZM38.4767 25.9466C36.737 25.9466 35.3267 27.3569 35.3267 29.0966C35.3267 30.8363 36.737 32.2466 38.4767 32.2466H41.9767C43.7164 32.2466 45.1267 30.8363 45.1267 29.0966C45.1267 27.3569 43.7164 25.9466 41.9767 25.9466H38.4767Z" fill="white"/>
</svg>
