<svg width="828" height="121" viewBox="0 0 828 121" fill="none" xmlns="http://www.w3.org/2000/svg">
<mask id="mask0_24_1407" style="mask-type:alpha" maskUnits="userSpaceOnUse" x="0" y="0" width="228" height="120">
<mask id="mask1_24_1407" style="mask-type:alpha" maskUnits="userSpaceOnUse" x="84" y="0" width="145" height="120">
<rect x="84.0684" y="0.330811" width="144.195" height="119.63" fill="#D9D9D9"/>
</mask>
<g mask="url(#mask1_24_1407)">
<path d="M11.0791 11.8282L227.344 3.71826V114.554L11.0791 122.664V11.8282Z" fill="black"/>
</g>
<path d="M84.0684 106.444H90.3937V113.878L84.0684 119.919V106.444Z" fill="black"/>
<mask id="mask2_24_1407" style="mask-type:alpha" maskUnits="userSpaceOnUse" x="0" y="0" width="91" height="120">
<rect x="0.261719" y="0.330811" width="90.1321" height="119.63" fill="#D9D9D9"/>
</mask>
<g mask="url(#mask2_24_1407)">
<path d="M0.268555 3.71858L216.533 -4.39136V106.444L0.268555 114.554V3.71858Z" fill="black"/>
</g>
</mask>
<g mask="url(#mask0_24_1407)">
<mask id="mask3_24_1407" style="mask-type:alpha" maskUnits="userSpaceOnUse" x="84" y="0" width="145" height="120">
<rect x="84.0684" y="0.330078" width="144.195" height="119.63" fill="#D9D9D9"/>
</mask>
<g mask="url(#mask3_24_1407)">
<path d="M11.0791 11.8275L216.126 4.13822C222.252 3.90847 227.344 8.81298 227.344 14.9439V104.138C227.344 109.952 222.746 114.726 216.936 114.944L11.0791 122.663V11.8275Z" fill="#1963AD"/>
<rect x="76.2773" y="33.5305" width="37.8464" height="24.3298" rx="12.1649" fill="white"/>
<rect x="116.827" y="33.5305" width="37.8464" height="24.3298" rx="12.1649" fill="white"/>
<rect x="189.817" y="25.4207" width="37.8464" height="24.3298" rx="12.1649" transform="rotate(90 189.817 25.4207)" fill="white"/>
<rect x="76.2773" y="71.377" width="37.8464" height="24.3298" rx="12.1649" fill="white"/>
<rect x="149.268" y="63.2671" width="37.8464" height="24.3298" rx="12.1649" transform="rotate(90 149.268 63.2671)" fill="white"/>
<rect x="157.377" y="71.377" width="37.8464" height="24.3298" rx="12.1649" fill="white"/>
</g>
<g filter="url(#filter0_d_24_1407)">
<g filter="url(#filter1_d_24_1407)">
<path d="M73.2568 103.74H90.3954V111.174L73.2568 117.214V103.74Z" fill="white"/>
</g>
<mask id="mask4_24_1407" style="mask-type:alpha" maskUnits="userSpaceOnUse" x="0" y="0" width="91" height="120">
<rect x="0.262695" y="0.330078" width="90.1321" height="119.63" fill="#D9D9D9"/>
</mask>
<g mask="url(#mask4_24_1407)">
<rect x="57.3574" y="17.311" width="37.8464" height="24.3298" rx="12.1649" transform="rotate(90 57.3574 17.311)" fill="white"/>
<rect x="65.4668" y="25.4209" width="37.8464" height="24.3298" rx="12.1649" fill="white"/>
<rect x="24.917" y="63.2673" width="37.8464" height="24.3298" rx="12.1649" fill="white"/>
<rect x="65.4668" y="63.2673" width="37.8464" height="24.3298" rx="12.1649" fill="white"/>
</g>
</g>
<path d="M84.0684 106.444H90.3937V111.175L84.0684 119.918V106.444Z" fill="#1963AD"/>
<path d="M84.0684 106.444H90.3937V111.175L84.0684 119.918V106.444Z" fill="black" fill-opacity="0.4"/>
<mask id="mask5_24_1407" style="mask-type:alpha" maskUnits="userSpaceOnUse" x="0" y="0" width="91" height="120">
<rect x="0.261719" y="0.330078" width="90.1321" height="119.63" fill="#D9D9D9"/>
</mask>
<g mask="url(#mask5_24_1407)">
<path d="M0.268555 14.133C0.268555 8.31864 4.86636 3.54518 10.6766 3.3273L216.533 -4.39233V106.443L11.487 114.133C5.36042 114.362 0.268555 109.458 0.268555 103.327V14.133Z" fill="#1963AD"/>
<rect x="57.3574" y="17.3108" width="37.8464" height="24.3298" rx="12.1649" transform="rotate(90 57.3574 17.3108)" fill="white"/>
<rect x="65.4668" y="25.4207" width="37.8464" height="24.3298" rx="12.1649" fill="white"/>
<rect x="24.917" y="63.2671" width="37.8464" height="24.3298" rx="12.1649" fill="white"/>
<rect x="65.4668" y="63.2671" width="37.8464" height="24.3298" rx="12.1649" fill="white"/>
</g>
</g>
<path d="M253.836 26.011C253.836 20.8711 255.121 16.353 257.691 12.4566C260.261 8.56027 263.867 5.53436 268.51 3.37892C273.235 1.22347 278.665 0.145752 284.8 0.145752C290.52 0.145752 295.494 1.18202 299.722 3.25456C304.033 5.2442 307.391 8.1043 309.795 11.8349C312.282 15.5654 313.691 20.0421 314.023 25.2649H301.712C301.38 20.7882 299.722 17.3064 296.738 14.8193C293.753 12.3323 289.733 11.0888 284.676 11.0888C279.038 11.0888 274.52 12.4152 271.121 15.068C267.722 17.638 266.023 21.1613 266.023 25.638C266.023 29.2857 267.059 32.2287 269.132 34.467C271.204 36.6224 274.354 38.1976 278.582 39.1924L293.38 42.6743C300.759 44.3323 306.272 47.1924 309.919 51.2546C313.65 55.2338 315.515 60.3737 315.515 66.6743C315.515 72.0629 314.189 76.7468 311.536 80.7261C308.966 84.7053 305.277 87.7727 300.468 89.9281C295.743 92.0836 290.189 93.1613 283.805 93.1613C277.753 93.1613 272.406 92.1665 267.764 90.1768C263.204 88.1043 259.598 85.2028 256.945 81.4722C254.375 77.6587 252.924 73.2235 252.593 68.1665H265.028C265.111 72.4774 266.852 75.9178 270.251 78.4877C273.65 80.9748 278.168 82.2183 283.805 82.2183C289.774 82.2183 294.5 80.8919 297.981 78.239C301.546 75.5862 303.329 72.0629 303.329 67.6691C303.329 64.1043 302.334 61.2028 300.344 58.9644C298.354 56.7261 295.204 55.1095 290.893 54.1147L276.095 50.7572C268.8 49.0991 263.246 46.1976 259.432 42.0525C255.702 37.8245 253.836 32.4774 253.836 26.011Z" fill="#1963AD"/>
<path d="M253.836 26.011C253.836 20.8711 255.121 16.353 257.691 12.4566C260.261 8.56027 263.867 5.53436 268.51 3.37892C273.235 1.22347 278.665 0.145752 284.8 0.145752C290.52 0.145752 295.494 1.18202 299.722 3.25456C304.033 5.2442 307.391 8.1043 309.795 11.8349C312.282 15.5654 313.691 20.0421 314.023 25.2649H301.712C301.38 20.7882 299.722 17.3064 296.738 14.8193C293.753 12.3323 289.733 11.0888 284.676 11.0888C279.038 11.0888 274.52 12.4152 271.121 15.068C267.722 17.638 266.023 21.1613 266.023 25.638C266.023 29.2857 267.059 32.2287 269.132 34.467C271.204 36.6224 274.354 38.1976 278.582 39.1924L293.38 42.6743C300.759 44.3323 306.272 47.1924 309.919 51.2546C313.65 55.2338 315.515 60.3737 315.515 66.6743C315.515 72.0629 314.189 76.7468 311.536 80.7261C308.966 84.7053 305.277 87.7727 300.468 89.9281C295.743 92.0836 290.189 93.1613 283.805 93.1613C277.753 93.1613 272.406 92.1665 267.764 90.1768C263.204 88.1043 259.598 85.2028 256.945 81.4722C254.375 77.6587 252.924 73.2235 252.593 68.1665H265.028C265.111 72.4774 266.852 75.9178 270.251 78.4877C273.65 80.9748 278.168 82.2183 283.805 82.2183C289.774 82.2183 294.5 80.8919 297.981 78.239C301.546 75.5862 303.329 72.0629 303.329 67.6691C303.329 64.1043 302.334 61.2028 300.344 58.9644C298.354 56.7261 295.204 55.1095 290.893 54.1147L276.095 50.7572C268.8 49.0991 263.246 46.1976 259.432 42.0525C255.702 37.8245 253.836 32.4774 253.836 26.011Z" fill="black" fill-opacity="0.4"/>
<path d="M341.896 91.6691L322 30.8608H334.062L344.135 62.4463C344.881 64.6846 345.544 67.0059 346.124 69.41C346.704 71.7312 347.285 74.2183 347.865 76.8711C348.197 75.0473 348.57 73.3064 348.984 71.6483C349.482 69.9074 349.979 68.2908 350.477 66.7986C350.974 65.2235 351.43 63.7727 351.844 62.4463L362.041 30.8608H373.979L384.052 62.4463C384.383 63.1924 384.673 64.1872 384.922 65.4307C385.254 66.5913 385.627 67.8349 386.041 69.1613C386.456 70.4877 386.829 71.8141 387.16 73.1406C387.492 74.467 387.782 75.7105 388.031 76.8711C388.363 75.2131 388.694 73.638 389.026 72.1458C389.44 70.5706 389.855 69.0369 390.269 67.5447C390.767 65.9696 391.306 64.2701 391.886 62.4463L402.083 30.8608H414.269L393.502 91.6691H382.435L371.865 59.0888C370.87 56.0214 370.041 53.3271 369.378 51.0059C368.798 48.6017 368.342 46.5706 368.01 44.9126C367.679 46.4048 367.181 48.2701 366.518 50.5084C365.938 52.6639 365.109 55.5654 364.031 59.2131L353.461 91.6691H341.896Z" fill="#1963AD"/>
<path d="M341.896 91.6691L322 30.8608H334.062L344.135 62.4463C344.881 64.6846 345.544 67.0059 346.124 69.41C346.704 71.7312 347.285 74.2183 347.865 76.8711C348.197 75.0473 348.57 73.3064 348.984 71.6483C349.482 69.9074 349.979 68.2908 350.477 66.7986C350.974 65.2235 351.43 63.7727 351.844 62.4463L362.041 30.8608H373.979L384.052 62.4463C384.383 63.1924 384.673 64.1872 384.922 65.4307C385.254 66.5913 385.627 67.8349 386.041 69.1613C386.456 70.4877 386.829 71.8141 387.16 73.1406C387.492 74.467 387.782 75.7105 388.031 76.8711C388.363 75.2131 388.694 73.638 389.026 72.1458C389.44 70.5706 389.855 69.0369 390.269 67.5447C390.767 65.9696 391.306 64.2701 391.886 62.4463L402.083 30.8608H414.269L393.502 91.6691H382.435L371.865 59.0888C370.87 56.0214 370.041 53.3271 369.378 51.0059C368.798 48.6017 368.342 46.5706 368.01 44.9126C367.679 46.4048 367.181 48.2701 366.518 50.5084C365.938 52.6639 365.109 55.5654 364.031 59.2131L353.461 91.6691H341.896Z" fill="black" fill-opacity="0.4"/>
<path d="M424.289 91.6691V30.8608H435.978V91.6691H424.289Z" fill="#1963AD"/>
<path d="M424.289 91.6691V30.8608H435.978V91.6691H424.289Z" fill="black" fill-opacity="0.4"/>
<path d="M430.01 16.4359C427.937 16.4359 426.113 15.6898 424.538 14.1976C423.046 12.6224 422.3 10.7986 422.3 8.72606C422.3 6.57063 423.046 4.74679 424.538 3.25456C426.113 1.76234 427.937 1.01622 430.01 1.01622C432.165 1.01622 433.989 1.76234 435.481 3.25456C436.973 4.74679 437.719 6.57063 437.719 8.72606C437.719 10.7986 436.973 12.6224 435.481 14.1976C433.989 15.6898 432.165 16.4359 430.01 16.4359Z" fill="#1963AD"/>
<path d="M430.01 16.4359C427.937 16.4359 426.113 15.6898 424.538 14.1976C423.046 12.6224 422.3 10.7986 422.3 8.72606C422.3 6.57063 423.046 4.74679 424.538 3.25456C426.113 1.76234 427.937 1.01622 430.01 1.01622C432.165 1.01622 433.989 1.76234 435.481 3.25456C436.973 4.74679 437.719 6.57063 437.719 8.72606C437.719 10.7986 436.973 12.6224 435.481 14.1976C433.989 15.6898 432.165 16.4359 430.01 16.4359Z" fill="black" fill-opacity="0.4"/>
<path d="M446.482 30.8608H484.658V40.6846H446.482V30.8608Z" fill="#1963AD"/>
<path d="M446.482 30.8608H484.658V40.6846H446.482V30.8608Z" fill="black" fill-opacity="0.4"/>
<path d="M481.301 0.643162V10.7157C480.555 10.7157 479.726 10.7157 478.814 10.7157C477.985 10.7157 477.073 10.7157 476.078 10.7157C472.513 10.7157 470.109 11.6276 468.866 13.4515C467.705 15.2753 467.125 17.8452 467.125 21.1613V91.6691H455.436V21.1613C455.436 16.1872 456.265 12.1665 457.923 9.09912C459.581 5.94886 461.819 3.66907 464.638 2.25974C467.456 0.850416 470.607 0.145752 474.089 0.145752C475.249 0.145752 476.451 0.187205 477.695 0.27011C478.938 0.353011 480.14 0.477361 481.301 0.643162Z" fill="#1963AD"/>
<path d="M481.301 0.643162V10.7157C480.555 10.7157 479.726 10.7157 478.814 10.7157C477.985 10.7157 477.073 10.7157 476.078 10.7157C472.513 10.7157 470.109 11.6276 468.866 13.4515C467.705 15.2753 467.125 17.8452 467.125 21.1613V91.6691H455.436V21.1613C455.436 16.1872 456.265 12.1665 457.923 9.09912C459.581 5.94886 461.819 3.66907 464.638 2.25974C467.456 0.850416 470.607 0.145752 474.089 0.145752C475.249 0.145752 476.451 0.187205 477.695 0.27011C478.938 0.353011 480.14 0.477361 481.301 0.643162Z" fill="black" fill-opacity="0.4"/>
<path d="M483.166 30.8608H519.228V40.6846H483.166V30.8608Z" fill="#1963AD"/>
<path d="M483.166 30.8608H519.228V40.6846H483.166V30.8608Z" fill="black" fill-opacity="0.4"/>
<path d="M507.291 91.6691H495.601V11.8349H507.291V91.6691Z" fill="#1963AD"/>
<path d="M507.291 91.6691H495.601V11.8349H507.291V91.6691Z" fill="black" fill-opacity="0.4"/>
<path d="M534.547 30.8608L555.936 90.0525L548.723 100.001L522.236 30.8608H534.547Z" fill="#1963AD"/>
<path d="M534.547 30.8608L555.936 90.0525L548.723 100.001L522.236 30.8608H534.547Z" fill="black" fill-opacity="0.4"/>
<path d="M523.853 118.902V109.327H531.687C533.594 109.327 535.335 109.12 536.91 108.705C538.485 108.374 539.936 107.586 541.262 106.343C542.589 105.182 543.708 103.317 544.62 100.747L570.236 30.8608H582.298L553.573 105.348C551.5 110.571 548.889 114.343 545.739 116.664C542.589 118.985 538.692 120.146 534.05 120.146C532.143 120.146 530.361 120.021 528.703 119.773C527.044 119.607 525.428 119.317 523.853 118.902Z" fill="#1963AD"/>
<path d="M523.853 118.902V109.327H531.687C533.594 109.327 535.335 109.12 536.91 108.705C538.485 108.374 539.936 107.586 541.262 106.343C542.589 105.182 543.708 103.317 544.62 100.747L570.236 30.8608H582.298L553.573 105.348C551.5 110.571 548.889 114.343 545.739 116.664C542.589 118.985 538.692 120.146 534.05 120.146C532.143 120.146 530.361 120.021 528.703 119.773C527.044 119.607 525.428 119.317 523.853 118.902Z" fill="black" fill-opacity="0.4"/>
<path d="M605.807 1.76233V91.6691H593.62V1.76233H605.807Z" fill="#1963AD"/>
<path d="M605.807 1.76233V91.6691H593.62V1.76233H605.807Z" fill="black" fill-opacity="0.4"/>
<path d="M628.936 52.0007H602.449V41.4307H627.941C632.998 41.4307 636.895 40.1458 639.631 37.5758C642.366 35.0059 643.734 31.3582 643.734 26.6328C643.734 22.1561 642.283 18.7157 639.382 16.3116C636.563 13.8245 632.501 12.581 627.195 12.581H600.335V1.76233H627.941C636.729 1.76233 643.61 3.87632 648.584 8.1043C653.641 12.3323 656.169 18.1354 656.169 25.5136C656.169 31.068 654.802 35.7105 652.066 39.4411C649.413 43.0888 645.475 45.7416 640.252 47.3996V45.7831C646.055 47.1924 650.408 49.7623 653.309 53.4929C656.294 57.1406 657.786 61.866 657.786 67.6691C657.786 72.6432 656.625 76.954 654.304 80.6017C652.066 84.1665 648.791 86.9022 644.48 88.809C640.169 90.7157 635.071 91.6691 629.185 91.6691H600.335V80.8504H628.936C634.159 80.8504 638.18 79.5654 640.998 76.9955C643.817 74.4256 645.226 70.8193 645.226 66.1768C645.226 61.7002 643.776 58.2183 640.874 55.7312C638.055 53.2442 634.076 52.0007 628.936 52.0007Z" fill="#1963AD"/>
<path d="M628.936 52.0007H602.449V41.4307H627.941C632.998 41.4307 636.895 40.1458 639.631 37.5758C642.366 35.0059 643.734 31.3582 643.734 26.6328C643.734 22.1561 642.283 18.7157 639.382 16.3116C636.563 13.8245 632.501 12.581 627.195 12.581H600.335V1.76233H627.941C636.729 1.76233 643.61 3.87632 648.584 8.1043C653.641 12.3323 656.169 18.1354 656.169 25.5136C656.169 31.068 654.802 35.7105 652.066 39.4411C649.413 43.0888 645.475 45.7416 640.252 47.3996V45.7831C646.055 47.1924 650.408 49.7623 653.309 53.4929C656.294 57.1406 657.786 61.866 657.786 67.6691C657.786 72.6432 656.625 76.954 654.304 80.6017C652.066 84.1665 648.791 86.9022 644.48 88.809C640.169 90.7157 635.071 91.6691 629.185 91.6691H600.335V80.8504H628.936C634.159 80.8504 638.18 79.5654 640.998 76.9955C643.817 74.4256 645.226 70.8193 645.226 66.1768C645.226 61.7002 643.776 58.2183 640.874 55.7312C638.055 53.2442 634.076 52.0007 628.936 52.0007Z" fill="black" fill-opacity="0.4"/>
<path d="M674.686 30.8608L696.075 90.0525L688.862 100.001L662.375 30.8608H674.686Z" fill="#1963AD"/>
<path d="M674.686 30.8608L696.075 90.0525L688.862 100.001L662.375 30.8608H674.686Z" fill="black" fill-opacity="0.4"/>
<path d="M663.992 118.902V109.327H671.826C673.733 109.327 675.474 109.12 677.049 108.705C678.624 108.374 680.075 107.586 681.401 106.343C682.728 105.182 683.847 103.317 684.759 100.747L710.375 30.8608H722.438L693.712 105.348C691.64 110.571 689.028 114.343 685.878 116.664C682.728 118.985 678.831 120.146 674.189 120.146C672.282 120.146 670.5 120.021 668.842 119.773C667.184 119.607 665.567 119.317 663.992 118.902Z" fill="#1963AD"/>
<path d="M663.992 118.902V109.327H671.826C673.733 109.327 675.474 109.12 677.049 108.705C678.624 108.374 680.075 107.586 681.401 106.343C682.728 105.182 683.847 103.317 684.759 100.747L710.375 30.8608H722.438L693.712 105.348C691.64 110.571 689.028 114.343 685.878 116.664C682.728 118.985 678.831 120.146 674.189 120.146C672.282 120.146 670.5 120.021 668.842 119.773C667.184 119.607 665.567 119.317 663.992 118.902Z" fill="black" fill-opacity="0.4"/>
<path d="M725.304 30.8608H760.62V40.6846H725.304V30.8608Z" fill="#1963AD"/>
<path d="M725.304 30.8608H760.62V40.6846H725.304V30.8608Z" fill="black" fill-opacity="0.4"/>
<path d="M760.122 81.4722L761.614 91.1717C758.464 92.4152 755.107 93.0369 751.542 93.0369C747.977 93.0369 744.951 92.3737 742.464 91.0473C739.977 89.638 738.07 87.5654 736.744 84.8297C735.418 82.0939 734.754 78.695 734.754 74.6328V11.8349H746.443V73.0162C746.443 76.4981 747.148 78.9851 748.557 80.4774C750.05 81.8867 751.956 82.5914 754.278 82.5914C756.101 82.5914 758.05 82.2183 760.122 81.4722Z" fill="#1963AD"/>
<path d="M760.122 81.4722L761.614 91.1717C758.464 92.4152 755.107 93.0369 751.542 93.0369C747.977 93.0369 744.951 92.3737 742.464 91.0473C739.977 89.638 738.07 87.5654 736.744 84.8297C735.418 82.0939 734.754 78.695 734.754 74.6328V11.8349H746.443V73.0162C746.443 76.4981 747.148 78.9851 748.557 80.4774C750.05 81.8867 751.956 82.5914 754.278 82.5914C756.101 82.5914 758.05 82.2183 760.122 81.4722Z" fill="black" fill-opacity="0.4"/>
<path d="M799.297 93.1613C793.411 93.1613 788.188 91.8349 783.629 89.182C779.069 86.4463 775.504 82.7157 772.934 77.9903C770.364 73.182 769.079 67.6276 769.079 61.3271C769.079 54.9437 770.323 49.3478 772.81 44.5395C775.38 39.7313 778.862 35.9592 783.256 33.2235C787.732 30.4877 792.914 29.1199 798.8 29.1199C804.603 29.1199 809.618 30.3634 813.846 32.8504C818.157 35.3375 821.473 38.8193 823.794 43.296C826.199 47.7727 827.401 53.0369 827.401 59.0888V63.4411L775.297 63.5654L775.546 55.7312H815.712C815.712 50.6743 814.178 46.6121 811.11 43.5447C808.043 40.4774 803.94 38.9437 798.8 38.9437C794.903 38.9437 791.546 39.8141 788.727 41.5551C785.991 43.2131 783.877 45.7002 782.385 49.0162C780.976 52.2494 780.271 56.1458 780.271 60.7053C780.271 68.0007 781.929 73.638 785.245 77.6173C788.561 81.5136 793.328 83.4618 799.546 83.4618C804.105 83.4618 807.836 82.5499 810.737 80.7261C813.639 78.9022 815.587 76.2494 816.582 72.7675H827.525C826.033 79.2338 822.841 84.2494 817.95 87.8142C813.059 91.3789 806.841 93.1613 799.297 93.1613Z" fill="#1963AD"/>
<path d="M799.297 93.1613C793.411 93.1613 788.188 91.8349 783.629 89.182C779.069 86.4463 775.504 82.7157 772.934 77.9903C770.364 73.182 769.079 67.6276 769.079 61.3271C769.079 54.9437 770.323 49.3478 772.81 44.5395C775.38 39.7313 778.862 35.9592 783.256 33.2235C787.732 30.4877 792.914 29.1199 798.8 29.1199C804.603 29.1199 809.618 30.3634 813.846 32.8504C818.157 35.3375 821.473 38.8193 823.794 43.296C826.199 47.7727 827.401 53.0369 827.401 59.0888V63.4411L775.297 63.5654L775.546 55.7312H815.712C815.712 50.6743 814.178 46.6121 811.11 43.5447C808.043 40.4774 803.94 38.9437 798.8 38.9437C794.903 38.9437 791.546 39.8141 788.727 41.5551C785.991 43.2131 783.877 45.7002 782.385 49.0162C780.976 52.2494 780.271 56.1458 780.271 60.7053C780.271 68.0007 781.929 73.638 785.245 77.6173C788.561 81.5136 793.328 83.4618 799.546 83.4618C804.105 83.4618 807.836 82.5499 810.737 80.7261C813.639 78.9022 815.587 76.2494 816.582 72.7675H827.525C826.033 79.2338 822.841 84.2494 817.95 87.8142C813.059 91.3789 806.841 93.1613 799.297 93.1613Z" fill="black" fill-opacity="0.4"/>
<defs>
<filter id="filter0_d_24_1407" x="16.4883" y="-26.0186" width="160.413" height="186.486" filterUnits="userSpaceOnUse" color-interpolation-filters="sRGB">
<feFlood flood-opacity="0" result="BackgroundImageFix"/>
<feColorMatrix in="SourceAlpha" type="matrix" values="0 0 0 0 0 0 0 0 0 0 0 0 0 0 0 0 0 0 127 0" result="hardAlpha"/>
<feOffset dx="43.253"/>
<feGaussianBlur stdDeviation="21.6265"/>
<feComposite in2="hardAlpha" operator="out"/>
<feColorMatrix type="matrix" values="0 0 0 0 0.0588235 0 0 0 0 0.231373 0 0 0 0 0.407843 0 0 0 0.25 0"/>
<feBlend mode="normal" in2="BackgroundImageFix" result="effect1_dropShadow_24_1407"/>
<feBlend mode="normal" in="SourceGraphic" in2="effect1_dropShadow_24_1407" result="shape"/>
</filter>
<filter id="filter1_d_24_1407" x="62.4436" y="92.9265" width="60.3917" height="56.7273" filterUnits="userSpaceOnUse" color-interpolation-filters="sRGB">
<feFlood flood-opacity="0" result="BackgroundImageFix"/>
<feColorMatrix in="SourceAlpha" type="matrix" values="0 0 0 0 0 0 0 0 0 0 0 0 0 0 0 0 0 0 127 0" result="hardAlpha"/>
<feOffset dx="10.8132" dy="10.8132"/>
<feGaussianBlur stdDeviation="10.8132"/>
<feComposite in2="hardAlpha" operator="out"/>
<feColorMatrix type="matrix" values="0 0 0 0 0 0 0 0 0 0 0 0 0 0 0 0 0 0 0.25 0"/>
<feBlend mode="normal" in2="BackgroundImageFix" result="effect1_dropShadow_24_1407"/>
<feBlend mode="normal" in="SourceGraphic" in2="effect1_dropShadow_24_1407" result="shape"/>
</filter>
</defs>
</svg>
