<svg width="828" height="120" viewBox="0 0 828 120" fill="none" xmlns="http://www.w3.org/2000/svg">
<mask id="mask0_24_1408" style="mask-type:alpha" maskUnits="userSpaceOnUse" x="0" y="0" width="228" height="120">
<mask id="mask1_24_1408" style="mask-type:alpha" maskUnits="userSpaceOnUse" x="83" y="0" width="146" height="120">
<rect x="83.8066" y="0.185059" width="144.195" height="119.63" fill="#D9D9D9"/>
</mask>
<g mask="url(#mask1_24_1408)">
<path d="M10.8174 11.6824L227.082 3.57251V114.408L10.8174 122.518V11.6824Z" fill="black"/>
</g>
<path d="M83.8066 106.298H90.132V113.732L83.8066 119.773V106.298Z" fill="black"/>
<mask id="mask2_24_1408" style="mask-type:alpha" maskUnits="userSpaceOnUse" x="0" y="0" width="91" height="120">
<rect y="0.185059" width="90.1321" height="119.63" fill="#D9D9D9"/>
</mask>
<g mask="url(#mask2_24_1408)">
<path d="M0.00683594 3.57282L216.272 -4.53711V106.299L0.00683594 114.409V3.57282Z" fill="black"/>
</g>
</mask>
<g mask="url(#mask0_24_1408)">
<mask id="mask3_24_1408" style="mask-type:alpha" maskUnits="userSpaceOnUse" x="83" y="0" width="146" height="120">
<rect x="83.8066" y="0.184326" width="144.195" height="119.63" fill="#D9D9D9"/>
</mask>
<g mask="url(#mask3_24_1408)">
<path d="M10.8174 11.6817L215.864 3.99247C221.99 3.76272 227.082 8.66723 227.082 14.7981V103.992C227.082 109.806 222.484 114.58 216.674 114.798L10.8174 122.517V11.6817Z" fill="white"/>
<rect x="76.0156" y="33.3848" width="37.8464" height="24.3298" rx="12.1649" fill="#1963AD"/>
<rect x="116.565" y="33.3848" width="37.8464" height="24.3298" rx="12.1649" fill="#1963AD"/>
<rect x="189.556" y="25.2749" width="37.8464" height="24.3298" rx="12.1649" transform="rotate(90 189.556 25.2749)" fill="#1963AD"/>
<rect x="76.0156" y="71.2312" width="37.8464" height="24.3298" rx="12.1649" fill="#1963AD"/>
<rect x="149.006" y="63.1213" width="37.8464" height="24.3298" rx="12.1649" transform="rotate(90 149.006 63.1213)" fill="#1963AD"/>
<rect x="157.115" y="71.2312" width="37.8464" height="24.3298" rx="12.1649" fill="#1963AD"/>
</g>
<g filter="url(#filter0_d_24_1408)">
<g filter="url(#filter1_d_24_1408)">
<path d="M72.9951 103.594H90.1337V111.028L72.9951 117.068V103.594Z" fill="#1963AD"/>
</g>
<mask id="mask4_24_1408" style="mask-type:alpha" maskUnits="userSpaceOnUse" x="0" y="0" width="91" height="120">
<rect x="0.000976562" y="0.184326" width="90.1321" height="119.63" fill="#D9D9D9"/>
</mask>
<g mask="url(#mask4_24_1408)">
<rect x="57.0957" y="17.1653" width="37.8464" height="24.3298" rx="12.1649" transform="rotate(90 57.0957 17.1653)" fill="#1963AD"/>
<rect x="65.2051" y="25.2751" width="37.8464" height="24.3298" rx="12.1649" fill="#1963AD"/>
<rect x="24.6553" y="63.1216" width="37.8464" height="24.3298" rx="12.1649" fill="#1963AD"/>
<rect x="65.2051" y="63.1216" width="37.8464" height="24.3298" rx="12.1649" fill="#1963AD"/>
</g>
</g>
<path d="M83.8066 106.298H90.132V111.029L83.8066 119.772V106.298Z" fill="white"/>
<path d="M83.8066 106.298H90.132V111.029L83.8066 119.772V106.298Z" fill="#1963AD" fill-opacity="0.4"/>
<mask id="mask5_24_1408" style="mask-type:alpha" maskUnits="userSpaceOnUse" x="0" y="0" width="91" height="120">
<rect y="0.184326" width="90.1321" height="119.63" fill="#D9D9D9"/>
</mask>
<g mask="url(#mask5_24_1408)">
<path d="M0.00683594 13.9872C0.00683594 8.17289 4.60464 3.39943 10.4149 3.18155L216.272 -4.53809V106.298L11.2253 113.987C5.09871 114.217 0.00683594 109.312 0.00683594 103.181V13.9872Z" fill="white"/>
<rect x="57.0957" y="17.165" width="37.8464" height="24.3298" rx="12.1649" transform="rotate(90 57.0957 17.165)" fill="#1963AD"/>
<rect x="65.2051" y="25.2749" width="37.8464" height="24.3298" rx="12.1649" fill="#1963AD"/>
<rect x="24.6553" y="63.1213" width="37.8464" height="24.3298" rx="12.1649" fill="#1963AD"/>
<rect x="65.2051" y="63.1213" width="37.8464" height="24.3298" rx="12.1649" fill="#1963AD"/>
</g>
</g>
<path d="M253.575 25.8653C253.575 20.7254 254.86 16.2073 257.43 12.3109C259.999 8.41451 263.606 5.38861 268.248 3.23316C272.974 1.07772 278.404 0 284.538 0C290.259 0 295.233 1.03627 299.461 3.10881C303.771 5.09845 307.129 7.95855 309.533 11.6891C312.02 15.4197 313.429 19.8964 313.761 25.1192H301.45C301.119 20.6425 299.461 17.1606 296.476 14.6736C293.492 12.1865 289.471 10.943 284.414 10.943C278.777 10.943 274.259 12.2694 270.86 14.9223C267.461 17.4922 265.761 21.0155 265.761 25.4922C265.761 29.1399 266.797 32.0829 268.87 34.3212C270.942 36.4767 274.093 38.0518 278.321 39.0466L293.119 42.5285C300.497 44.1865 306.01 47.0466 309.657 51.1088C313.388 55.0881 315.253 60.228 315.253 66.5285C315.253 71.9171 313.927 76.601 311.274 80.5803C308.704 84.5596 305.015 87.6269 300.207 89.7824C295.481 91.9378 289.927 93.0155 283.543 93.0155C277.492 93.0155 272.145 92.0207 267.502 90.0311C262.942 87.9586 259.336 85.057 256.683 81.3264C254.113 77.513 252.663 73.0777 252.331 68.0207H264.766C264.849 72.3316 266.59 75.772 269.989 78.342C273.388 80.829 277.906 82.0725 283.543 82.0725C289.512 82.0725 294.238 80.7461 297.72 78.0933C301.284 75.4404 303.067 71.9171 303.067 67.5233C303.067 63.9586 302.072 61.057 300.082 58.8187C298.093 56.5803 294.942 54.9637 290.632 53.9689L275.834 50.6114C268.538 48.9534 262.984 46.0518 259.17 41.9067C255.44 37.6788 253.575 32.3316 253.575 25.8653Z" fill="white"/>
<path d="M341.634 91.5233L321.738 30.715H333.8L343.873 62.3005C344.619 64.5389 345.282 66.8601 345.862 69.2643C346.443 71.5855 347.023 74.0725 347.603 76.7254C347.935 74.9016 348.308 73.1606 348.723 71.5026C349.22 69.7617 349.717 68.1451 350.215 66.6529C350.712 65.0777 351.168 63.6269 351.583 62.3005L361.78 30.715H373.717L383.79 62.3005C384.122 63.0466 384.412 64.0415 384.66 65.285C384.992 66.4456 385.365 67.6891 385.78 69.0155C386.194 70.342 386.567 71.6684 386.899 72.9948C387.23 74.3212 387.52 75.5648 387.769 76.7254C388.101 75.0674 388.432 73.4922 388.764 72C389.179 70.4249 389.593 68.8912 390.008 67.399C390.505 65.8238 391.044 64.1244 391.624 62.3005L401.821 30.715H414.008L393.241 91.5233H382.173L371.603 58.943C370.609 55.8756 369.78 53.1813 369.116 50.8601C368.536 48.456 368.08 46.4249 367.748 44.7668C367.417 46.2591 366.919 48.1244 366.256 50.3627C365.676 52.5181 364.847 55.4197 363.769 59.0674L353.199 91.5233H341.634Z" fill="white"/>
<path d="M424.028 91.5233V30.715H435.717V91.5233H424.028Z" fill="white"/>
<path d="M429.748 16.2902C427.675 16.2902 425.851 15.544 424.276 14.0518C422.784 12.4767 422.038 10.6529 422.038 8.58031C422.038 6.42487 422.784 4.60104 424.276 3.10881C425.851 1.61658 427.675 0.87047 429.748 0.87047C431.903 0.87047 433.727 1.61658 435.219 3.10881C436.712 4.60104 437.458 6.42487 437.458 8.58031C437.458 10.6529 436.712 12.4767 435.219 14.0518C433.727 15.544 431.903 16.2902 429.748 16.2902Z" fill="white"/>
<path d="M446.221 30.715H484.397V40.5389H446.221V30.715Z" fill="white"/>
<path d="M481.039 0.49741V10.57C480.293 10.57 479.464 10.57 478.552 10.57C477.723 10.57 476.811 10.57 475.816 10.57C472.252 10.57 469.848 11.4819 468.604 13.3057C467.443 15.1295 466.863 17.6995 466.863 21.0155V91.5233H455.174V21.0155C455.174 16.0415 456.003 12.0207 457.661 8.95337C459.319 5.80311 461.557 3.52332 464.376 2.11399C467.195 0.704664 470.345 0 473.827 0C474.987 0 476.19 0.0414527 477.433 0.124358C478.677 0.207259 479.879 0.331609 481.039 0.49741Z" fill="white"/>
<path d="M482.905 30.715H518.967V40.5389H482.905V30.715Z" fill="white"/>
<path d="M507.029 91.5233H495.34V11.6891H507.029V91.5233Z" fill="white"/>
<path d="M534.285 30.715L555.674 89.9067L548.462 99.8549L521.974 30.715H534.285Z" fill="white"/>
<path d="M523.591 118.756V109.181H531.425C533.332 109.181 535.073 108.974 536.648 108.56C538.223 108.228 539.674 107.44 541 106.197C542.327 105.036 543.446 103.171 544.358 100.601L569.974 30.715H582.037L553.311 105.202C551.239 110.425 548.627 114.197 545.477 116.518C542.327 118.839 538.43 120 533.788 120C531.881 120 530.099 119.876 528.441 119.627C526.783 119.461 525.166 119.171 523.591 118.756Z" fill="white"/>
<path d="M605.545 1.61658V91.5233H593.359V1.61658H605.545Z" fill="white"/>
<path d="M628.675 51.8549H602.188V41.285H627.68C632.737 41.285 636.633 40 639.369 37.4301C642.105 34.8601 643.473 31.2124 643.473 26.4871C643.473 22.0104 642.022 18.57 639.12 16.1658C636.302 13.6788 632.239 12.4352 626.934 12.4352H600.074V1.61658H627.68C636.467 1.61658 643.348 3.73057 648.322 7.95855C653.379 12.1865 655.908 17.9896 655.908 25.3679C655.908 30.9223 654.54 35.5648 651.804 39.2953C649.151 42.943 645.213 45.5959 639.991 47.2539V45.6373C645.794 47.0466 650.146 49.6166 653.048 53.3472C656.032 56.9948 657.524 61.7202 657.524 67.5233C657.524 72.4974 656.364 76.8083 654.042 80.456C651.804 84.0207 648.53 86.7565 644.219 88.6632C639.908 90.57 634.809 91.5233 628.923 91.5233H600.074V80.7047H628.675C633.897 80.7047 637.918 79.4197 640.737 76.8497C643.555 74.2798 644.965 70.6736 644.965 66.0311C644.965 61.5544 643.514 58.0725 640.612 55.5855C637.794 53.0984 633.815 51.8549 628.675 51.8549Z" fill="white"/>
<path d="M674.425 30.715L695.813 89.9067L688.601 99.8549L662.114 30.715H674.425Z" fill="white"/>
<path d="M663.73 118.756V109.181H671.564C673.471 109.181 675.212 108.974 676.787 108.56C678.362 108.228 679.813 107.44 681.14 106.197C682.466 105.036 683.585 103.171 684.497 100.601L710.114 30.715H722.176L693.451 105.202C691.378 110.425 688.767 114.197 685.616 116.518C682.466 118.839 678.57 120 673.927 120C672.02 120 670.238 119.876 668.58 119.627C666.922 119.461 665.305 119.171 663.73 118.756Z" fill="white"/>
<path d="M725.042 30.715H760.358V40.5389H725.042V30.715Z" fill="white"/>
<path d="M759.86 81.3264L761.353 91.0259C758.202 92.2694 754.845 92.8912 751.28 92.8912C747.715 92.8912 744.689 92.228 742.202 90.9016C739.715 89.4922 737.809 87.4197 736.482 84.6839C735.156 81.9482 734.493 78.5492 734.493 74.4871V11.6891H746.182V72.8705C746.182 76.3523 746.886 78.8394 748.296 80.3316C749.788 81.7409 751.695 82.4456 754.016 82.4456C755.84 82.4456 757.788 82.0725 759.86 81.3264Z" fill="white"/>
<path d="M799.035 93.0155C793.149 93.0155 787.927 91.6891 783.367 89.0363C778.807 86.3005 775.243 82.57 772.673 77.8446C770.103 73.0363 768.818 67.4819 768.818 61.1813C768.818 54.7979 770.061 49.2021 772.548 44.3938C775.118 39.5855 778.6 35.8135 782.994 33.0777C787.471 30.342 792.652 28.9741 798.538 28.9741C804.341 28.9741 809.357 30.2176 813.585 32.7047C817.895 35.1917 821.211 38.6736 823.533 43.1503C825.937 47.6269 827.139 52.8912 827.139 58.943V63.2953L775.035 63.4197L775.284 55.5855H815.45C815.45 50.5285 813.916 46.4663 810.849 43.399C807.781 40.3316 803.678 38.7979 798.538 38.7979C794.642 38.7979 791.284 39.6684 788.465 41.4093C785.73 43.0674 783.616 45.5544 782.123 48.8705C780.714 52.1036 780.009 56 780.009 60.5596C780.009 67.8549 781.667 73.4922 784.984 77.4715C788.3 81.3679 793.066 83.3161 799.284 83.3161C803.844 83.3161 807.574 82.4041 810.476 80.5803C813.377 78.7565 815.325 76.1036 816.32 72.6218H827.263C825.771 79.0881 822.579 84.1036 817.688 87.6684C812.797 91.2332 806.579 93.0155 799.035 93.0155Z" fill="white"/>
<defs>
<filter id="filter0_d_24_1408" x="16.2266" y="-26.1644" width="160.413" height="186.486" filterUnits="userSpaceOnUse" color-interpolation-filters="sRGB">
<feFlood flood-opacity="0" result="BackgroundImageFix"/>
<feColorMatrix in="SourceAlpha" type="matrix" values="0 0 0 0 0 0 0 0 0 0 0 0 0 0 0 0 0 0 127 0" result="hardAlpha"/>
<feOffset dx="43.253"/>
<feGaussianBlur stdDeviation="21.6265"/>
<feComposite in2="hardAlpha" operator="out"/>
<feColorMatrix type="matrix" values="0 0 0 0 0.0588235 0 0 0 0 0.231373 0 0 0 0 0.407843 0 0 0 0.25 0"/>
<feBlend mode="normal" in2="BackgroundImageFix" result="effect1_dropShadow_24_1408"/>
<feBlend mode="normal" in="SourceGraphic" in2="effect1_dropShadow_24_1408" result="shape"/>
</filter>
<filter id="filter1_d_24_1408" x="62.1819" y="92.7807" width="60.3917" height="56.7273" filterUnits="userSpaceOnUse" color-interpolation-filters="sRGB">
<feFlood flood-opacity="0" result="BackgroundImageFix"/>
<feColorMatrix in="SourceAlpha" type="matrix" values="0 0 0 0 0 0 0 0 0 0 0 0 0 0 0 0 0 0 127 0" result="hardAlpha"/>
<feOffset dx="10.8132" dy="10.8132"/>
<feGaussianBlur stdDeviation="10.8132"/>
<feComposite in2="hardAlpha" operator="out"/>
<feColorMatrix type="matrix" values="0 0 0 0 0 0 0 0 0 0 0 0 0 0 0 0 0 0 0.25 0"/>
<feBlend mode="normal" in2="BackgroundImageFix" result="effect1_dropShadow_24_1408"/>
<feBlend mode="normal" in="SourceGraphic" in2="effect1_dropShadow_24_1408" result="shape"/>
</filter>
</defs>
</svg>
