<svg width="320" height="320" viewBox="0 0 320 320" fill="none" xmlns="http://www.w3.org/2000/svg">
<path fill-rule="evenodd" clip-rule="evenodd" d="M320 32.9412C320 14.7483 305.252 0 287.059 0H32.9412C14.7483 0 0 14.7483 0 32.9412V287.059C0 305.252 14.7483 320 32.9412 320H287.059C305.252 320 320 305.252 320 287.059V32.9412ZM77.6464 115.294C77.6464 103.599 68.1654 94.1177 56.47 94.1177C44.7745 94.1177 35.2935 103.599 35.2935 115.294L35.2935 138.824C35.2935 150.519 44.7745 160 56.47 160C68.1654 160 77.6464 150.519 77.6464 138.824V115.294ZM112.941 108.235C101.245 108.235 91.7641 117.716 91.7641 129.412C91.7641 141.107 101.245 150.588 112.941 150.588H136.47C148.165 150.588 157.646 141.107 157.646 129.412C157.646 117.716 148.165 108.235 136.47 108.235H112.941ZM162.352 129.412C162.352 117.716 171.833 108.235 183.529 108.235H207.058C218.754 108.235 228.235 117.716 228.235 129.412C228.235 141.107 218.754 150.588 207.058 150.588H183.529C171.833 150.588 162.352 141.107 162.352 129.412ZM289.411 115.294C289.411 103.599 279.93 94.1177 268.235 94.1177C256.539 94.1177 247.058 103.599 247.058 115.294V138.824C247.058 150.519 256.539 160 268.235 160C279.93 160 289.411 150.519 289.411 138.824V115.294ZM21.1758 195.294C21.1758 183.599 30.6569 174.118 42.3523 174.118H65.8817C77.5772 174.118 87.0582 183.599 87.0582 195.294C87.0582 206.99 77.5772 216.471 65.8817 216.471H42.3523C30.6569 216.471 21.1758 206.99 21.1758 195.294ZM112.941 174.118C101.245 174.118 91.7641 183.599 91.7641 195.294C91.7641 206.99 101.245 216.471 112.941 216.471H136.47C148.165 216.471 157.646 206.99 157.646 195.294C157.646 183.599 148.165 174.118 136.47 174.118H112.941ZM197.646 160C209.342 160 218.823 169.481 218.823 181.177V204.706C218.823 216.401 209.342 225.882 197.646 225.882C185.951 225.882 176.47 216.401 176.47 204.706V181.177C176.47 169.481 185.951 160 197.646 160ZM254.117 174.118C242.422 174.118 232.941 183.599 232.941 195.294C232.941 206.99 242.422 216.471 254.117 216.471H277.647C289.342 216.471 298.823 206.99 298.823 195.294C298.823 183.599 289.342 174.118 277.647 174.118H254.117Z" fill="#1963AD"/>
</svg>
